<?xml version="1.0" encoding="UTF-8"?>
<svg width="321px" height="103px" viewBox="0 0 321 103" version="1.1" xmlns="http://www.w3.org/2000/svg" xmlns:xlink="http://www.w3.org/1999/xlink">
    <!-- Generator: Sketch 52.6 (67491) - http://www.bohemiancoding.com/sketch -->
    <title>banner</title>
    <desc>Created with Sketch.</desc>
    <g id="Websites" stroke="none" stroke-width="1" fill="none" fill-rule="evenodd">
        <g id="Desktop" transform="translate(-560.000000, -2498.000000)">
            <g id="Confirmações" transform="translate(0.000000, 2218.000000)">
                <g id="banner" transform="translate(560.000000, 280.000000)">
                    <g id="Page-1">
                        <path d="M50.2769,20.0841 C42.7259,22.8961 45.4409,37.7931 44.6359,40.2081 C43.8309,42.6231 14.0159,54.6971 3.5409,68.3811 C3.5409,68.3811 23.6859,65.9661 26.9089,71.6011 C30.1319,77.2361 14.0159,94.9451 15.6279,100.5801 C15.6279,100.5801 43.8299,86.0901 56.7229,83.6761 C69.6159,81.2611 82.5069,74.0171 80.8969,65.1621 C80.8969,65.1621 159.0569,43.4271 242.8599,61.9421 C242.8599,61.9421 233.1909,69.9911 245.2769,78.0411 C257.3639,86.0901 299.2659,93.3361 304.0999,98.9701 L291.2069,72.4071 L316.9929,68.3811 C316.9929,68.3811 292.8199,42.6231 278.3159,40.2081 C278.3159,40.2081 280.7329,24.1091 271.0639,22.4991 C261.3939,20.8891 145.3599,-15.3339 50.2769,20.0841" id="Fill-1" fill="#f96b9e"></path>
                        <path d="M245.4106,82.2585 C245.4106,82.2585 233.7866,77.5585 239.8756,64.0085" id="Stroke-3" stroke="#08336D"></path>
                        <path d="M266.8906,68.7235 L266.8906,72.5395" id="Stroke-5" stroke="#08336D"></path>
                        <path d="M264.0117,66.8842 L264.0117,73.2112" id="Stroke-7" stroke="#08336D"></path>
                        <path d="M261.1343,66.442 L261.1333,73.852" id="Stroke-9" stroke="#08336D"></path>
                        <path d="M258.4761,66.442 L258.2531,74.073" id="Stroke-11" stroke="#08336D"></path>
                        <path d="M255.374,65.7787 L255.374,74.2357" id="Stroke-13" stroke="#08336D"></path>
                        <path d="M252.4951,65.1147 L252.4951,74.3347" id="Stroke-15" stroke="#08336D"></path>
                        <path d="M249.6162,64.893 L249.6162,75.179" id="Stroke-17" stroke="#08336D"></path>
                        <path d="M246.7373,64.672 L246.7373,75.798" id="Stroke-19" stroke="#08336D"></path>
                        <path d="M243.8574,64.2299 L243.8574,80.5059" id="Stroke-21" stroke="#08336D"></path>
                        <path d="M240.9785,64.0087 L240.9785,78.8947" id="Stroke-23" stroke="#08336D"></path>
                        <path d="M75.5894,81.3734 C75.5894,81.3734 87.2144,76.6724 81.1244,63.1234" id="Stroke-25" stroke="#08336D"></path>
                        <path d="M49.9014,68.4323 C58.7554,64.4303 110.3544,57.5933 156.1724,57.5933 C207.5454,57.5933 262.2444,65.3163 271.0984,69.3173" id="Stroke-27" stroke="#08336D"></path>
                        <path d="M42.1523,39.2326 C33.6583,42.1796 15.8893,50.4006 0.5543,68.9856 C-0.7307,70.5426 21.1483,69.6486 27.1273,72.9676 C27.1273,72.9676 13.5083,99.8436 14.5053,101.5036 C15.3763,102.9536 27.7033,89.8896 72.7103,82.0916 C74.7343,81.7416 77.6933,81.2626 77.1943,78.4416 C76.5993,75.0776 70.5503,73.7966 67.5623,73.4646 C60.2353,72.6516 55.6923,73.2026 53.0023,71.7506 C44.8103,67.3266 37.5023,32.4856 46.4703,21.8676 C54.8243,11.9766 89.7403,1.4056 154.8433,0.5206 C200.0213,-0.0924 266.1753,12.8616 274.5293,22.7526 C283.4983,33.3716 276.1893,68.2116 267.9983,72.6356 C265.3083,74.0876 260.7633,73.5366 253.4383,74.3496 C250.4483,74.6816 244.4003,75.9626 243.8053,79.3266 C243.3073,82.1476 246.2663,82.6266 248.2893,82.9766 C293.2983,90.7746 305.6233,103.8396 306.4953,102.3886 C307.4913,100.7296 293.8733,73.8526 293.8733,73.8526 C299.8523,70.5346 321.7303,71.4276 320.4453,69.8706 C305.1103,51.2866 287.3413,43.0656 278.8493,40.1186" id="Stroke-29" stroke="#08336D"></path>
                        <path d="M54.1094,67.838 L54.1094,71.655" id="Stroke-31" stroke="#08336D"></path>
                        <path d="M56.9883,65.9992 L56.9883,72.3262" id="Stroke-33" stroke="#08336D"></path>
                        <path d="M59.8672,65.5568 L59.8672,72.9678" id="Stroke-35" stroke="#08336D"></path>
                        <path d="M62.5229,65.5568 L62.7469,73.1878" id="Stroke-37" stroke="#08336D"></path>
                        <path d="M65.626,64.893 L65.626,73.351" id="Stroke-39" stroke="#08336D"></path>
                        <path d="M68.5049,64.2299 L68.5049,73.4499" id="Stroke-41" stroke="#08336D"></path>
                        <path d="M71.3838,64.0082 L71.3838,74.2942" id="Stroke-43" stroke="#08336D"></path>
                        <path d="M74.2627,63.787 L74.2627,74.912" id="Stroke-45" stroke="#08336D"></path>
                        <path d="M77.1426,63.3444 L77.1426,79.6204" id="Stroke-47" stroke="#08336D"></path>
                        <path d="M80.0215,63.1232 L80.0215,78.0102" id="Stroke-49" stroke="#08336D"></path>
                    </g>
                </g>
            </g>
        </g>
    </g>
</svg>